<svg width="142" height="112" viewBox="0 0 142 112" fill="none" xmlns="http://www.w3.org/2000/svg">
<g filter="url(#filter0_d_306_5231)">
<path d="M16.9903 7.40868C8.32247 17.6634 3.16098 30.5489 3.16098 44.543C3.16098 77.9893 32.6447 105.103 69.0147 105.103C105.385 105.103 134.868 77.9893 134.868 44.543C134.868 30.5489 129.707 17.6634 121.039 7.40868C121.039 7.40868 89.5389 2.37109 69.0147 2.37109C48.4904 2.37109 16.9903 7.40868 16.9903 7.40868Z" fill="#A31D00"/>
<path d="M16.9903 7.63916C8.32247 17.8696 3.16098 30.7247 3.16098 44.6858C3.16098 78.0531 32.6447 105.103 69.0147 105.103C105.385 105.103 134.868 78.0531 134.868 44.6858C134.868 30.7247 129.707 17.8696 121.039 7.63916C121.039 7.63916 89.5389 13.269 69.0147 13.269C48.4904 13.269 16.9903 7.63916 16.9903 7.63916Z" fill="#F47E38"/>
<path d="M15.6731 6.98039C31.478 11.1511 74.4146 16.9901 119.722 6.98039L121.698 6.32185L121.039 0.39502H128.941L127.624 4.34624L131.576 10.9316C112.478 16.1999 58.2146 24.8926 9.74631 12.2487L13.6975 6.32185L15.6731 6.98039Z" fill="#F5F1EC"/>
<path d="M127.624 4.34624L131.576 10.9316C112.478 16.1999 58.2146 24.8926 9.74631 12.2487L13.6975 6.32185L15.6731 6.98039C31.478 11.1511 74.4146 16.9901 119.722 6.98039L121.698 6.32185M127.624 4.34624L121.698 6.32185M127.624 4.34624L128.941 0.39502H121.039L121.698 6.32185" stroke="#F5F1EC" stroke-width="0.790244"/>
<path d="M127.624 11.59L138.161 47.8095H126.966L124.99 10.2729L121.698 36.6144H114.454L123.673 8.95581L124.99 10.2729L127.624 11.59Z" fill="#F5F1EC"/>
<path d="M124.99 10.2729L126.966 47.8095H138.161L127.624 11.59L124.99 10.2729ZM124.99 10.2729L121.698 36.6144H114.454L123.673 8.95581L124.99 10.2729Z" stroke="#F5F1EC" stroke-width="0.790244"/>
<path d="M54.3231 51.3953V40.6829C54.3231 40.6829 50.9663 33.1007 53.2564 29.4038C55.6381 25.707 59.4396 23.4529 64.661 22.6414V28.1866C61.5465 28.5473 59.348 29.7194 58.0656 31.7031C56.7831 33.6868 60.661 38.895 60.661 38.395L56.5216 37.6614H69.0254V51.3953H54.3231ZM33.1628 51.3953V40.6829C30.1273 36.5751 29.9465 29.3936 33.1628 26.395C36.4674 23.4211 40.7449 22.2404 45.9953 22.8528L44.479 28.2757C41.3809 27.7897 38.9431 28.344 37.1656 29.9386C35.3881 31.5331 36.4479 35.5679 39.4834 38.2108L35.3613 37.6614H47.8651V51.3953H33.1628Z" fill="white"/>
</g>
<defs>
<filter id="filter0_d_306_5231" x="4.76837e-06" y="0" width="141.848" height="111.425" filterUnits="userSpaceOnUse" color-interpolation-filters="sRGB">
<feFlood flood-opacity="0" result="BackgroundImageFix"/>
<feColorMatrix in="SourceAlpha" type="matrix" values="0 0 0 0 0 0 0 0 0 0 0 0 0 0 0 0 0 0 127 0" result="hardAlpha"/>
<feOffset dy="3.16098"/>
<feGaussianBlur stdDeviation="1.58049"/>
<feComposite in2="hardAlpha" operator="out"/>
<feColorMatrix type="matrix" values="0 0 0 0 0 0 0 0 0 0 0 0 0 0 0 0 0 0 0.25 0"/>
<feBlend mode="normal" in2="BackgroundImageFix" result="effect1_dropShadow_306_5231"/>
<feBlend mode="normal" in="SourceGraphic" in2="effect1_dropShadow_306_5231" result="shape"/>
</filter>
</defs>
</svg>
